<svg width="140" height="42" viewBox="0 0 140 42" fill="none" xmlns="http://www.w3.org/2000/svg">
<rect x="0.5" y="0.5" width="139" height="41" rx="11.5" stroke="#777777"/>
<path d="M56.5456 26.16C56.2576 26.16 55.9803 26.112 55.7136 26.016C55.447 25.92 55.2283 25.7493 55.0576 25.504C54.887 25.2587 54.8016 24.9173 54.8016 24.48V17.232H56.2256V24.304C56.2256 24.5493 56.279 24.7253 56.3856 24.832C56.4923 24.9387 56.663 24.992 56.8976 24.992C56.9936 24.992 57.095 24.9813 57.2016 24.96C57.3083 24.9387 57.4096 24.912 57.5056 24.88L57.6976 25.92C57.495 26.016 57.2976 26.08 57.1056 26.112C56.9136 26.144 56.727 26.16 56.5456 26.16ZM62.1809 26.16C61.1782 26.16 60.3995 25.92 59.8449 25.44C59.3009 24.9493 59.0289 24.2187 59.0289 23.248V22.272C59.0289 21.7387 59.1035 21.3173 59.2529 21.008C59.4022 20.6987 59.5622 20.432 59.7329 20.208C59.9142 19.9627 60.0689 19.7493 60.1969 19.568C60.3355 19.3867 60.4049 19.168 60.4049 18.912C60.4049 18.688 60.3462 18.528 60.2289 18.432C60.1222 18.336 59.9835 18.288 59.8129 18.288C59.6849 18.288 59.5462 18.3093 59.3969 18.352C59.2582 18.3947 59.1195 18.448 58.9809 18.512L58.6609 17.488C58.8529 17.36 59.0875 17.2693 59.3649 17.216C59.6529 17.1627 59.9035 17.136 60.1169 17.136C60.5115 17.136 60.8262 17.2053 61.0609 17.344C61.3062 17.4827 61.4822 17.6747 61.5889 17.92C61.6955 18.1547 61.7489 18.432 61.7489 18.752C61.7489 19.1467 61.6795 19.472 61.5409 19.728C61.4129 19.984 61.2582 20.2347 61.0769 20.48C60.8955 20.7467 60.7462 21.0027 60.6289 21.248C60.5115 21.4933 60.4529 21.8133 60.4529 22.208V23.152C60.4529 23.6427 60.5329 24.0213 60.6929 24.288C60.8529 24.5547 61.0662 24.7413 61.3329 24.848C61.5995 24.944 61.8822 24.992 62.1809 24.992C62.7142 24.992 63.1195 24.8693 63.3969 24.624C63.6849 24.368 63.8289 23.9787 63.8289 23.456V17.232H65.2529V23.536C65.2529 24.3573 64.9915 25.0027 64.4689 25.472C63.9569 25.9307 63.1942 26.16 62.1809 26.16ZM60.7682 15.84V15.136C60.9816 15.0933 61.2002 15.0347 61.4242 14.96C61.6482 14.8747 61.8349 14.768 61.9842 14.64C62.1336 14.5013 62.2082 14.336 62.2082 14.144C62.2082 14.016 62.1709 13.9093 62.0962 13.824C62.0109 13.728 61.8829 13.68 61.7122 13.68C61.6056 13.68 61.4989 13.7013 61.3922 13.744C61.2749 13.7867 61.1736 13.824 61.0882 13.856L60.7682 12.976C60.9816 12.8053 61.2216 12.6933 61.4882 12.64C61.7442 12.5867 61.9522 12.56 62.1122 12.56C62.5389 12.56 62.8749 12.6773 63.1202 12.912C63.3549 13.1467 63.4722 13.4453 63.4722 13.808C63.4722 14.1067 63.3976 14.368 63.2482 14.592C63.0882 14.8053 62.9069 14.976 62.7042 15.104L62.5443 14.72H65.7282V15.84H60.7682ZM70.3229 26V19.776C70.3229 19.2533 70.2002 18.8693 69.9549 18.624C69.7202 18.3787 69.3202 18.256 68.7549 18.256C68.3709 18.256 68.0082 18.3093 67.6669 18.416C67.3362 18.512 67.0162 18.6507 66.7069 18.832V17.552C66.9202 17.4453 67.2242 17.3387 67.6189 17.232C68.0135 17.1253 68.4829 17.072 69.0269 17.072C69.5815 17.072 70.0615 17.152 70.4669 17.312C70.8722 17.472 71.1869 17.7387 71.4109 18.112C71.6349 18.4747 71.7469 18.96 71.7469 19.568V26H70.3229ZM79.4789 26V20.16C79.4789 19.4667 79.3189 18.976 78.9989 18.688C78.6895 18.3893 78.1669 18.24 77.4309 18.24C76.8975 18.24 76.3855 18.3147 75.8949 18.464C75.4149 18.6027 74.9562 18.8 74.5189 19.056V17.728C74.8282 17.568 75.2442 17.4187 75.7669 17.28C76.3002 17.1413 76.8975 17.072 77.5589 17.072C78.1242 17.072 78.6042 17.136 78.9989 17.264C79.4042 17.392 79.7029 17.6267 79.8949 17.968C80.2682 18.1387 80.5242 18.4053 80.6629 18.768C80.8122 19.1307 80.8869 19.568 80.8869 20.08V26H79.4789ZM76.7269 26.16C75.7882 26.16 75.0682 25.9467 74.5669 25.52C74.0762 25.0827 73.8309 24.4587 73.8309 23.648C73.8309 22.7627 74.1509 22.08 74.7909 21.6C75.4415 21.12 76.4922 20.8373 77.9429 20.752L79.7669 20.64V21.824L78.1349 21.936C77.0469 22.0107 76.2949 22.1813 75.8789 22.448C75.4735 22.7147 75.2709 23.104 75.2709 23.616C75.2709 24.096 75.4202 24.448 75.7189 24.672C76.0282 24.896 76.4549 25.008 76.9989 25.008C77.1802 25.008 77.3455 24.9973 77.4949 24.976C77.6442 24.944 77.7882 24.9067 77.9269 24.864L78.1509 25.936C77.9482 26.0107 77.7242 26.064 77.4789 26.096C77.2442 26.1387 76.9935 26.16 76.7269 26.16ZM79.8469 18.464L79.0469 17.712C79.3242 17.6693 79.5855 17.5627 79.8309 17.392C80.0762 17.2213 80.1989 16.976 80.1989 16.656H81.5909C81.5909 16.9867 81.5109 17.28 81.3509 17.536C81.2015 17.7813 80.9935 17.984 80.7269 18.144C80.4602 18.2933 80.1669 18.4 79.8469 18.464ZM78.8085 30.24C78.1258 30.24 77.6085 30.1013 77.2565 29.824C76.8938 29.5573 76.7125 29.1733 76.7125 28.672V28.4C76.7125 28.2187 76.6698 28.1067 76.5845 28.064C76.4885 28.032 76.3605 28.0373 76.2005 28.08L76.1045 27.12C76.2538 27.0773 76.4032 27.0507 76.5525 27.04C76.6912 27.0293 76.7978 27.024 76.8725 27.024C77.2565 27.024 77.5338 27.1093 77.7045 27.28C77.8645 27.4507 77.9445 27.6907 77.9445 28V28.544C77.9445 28.7467 78.0085 28.9173 78.1365 29.056C78.2645 29.1947 78.4832 29.264 78.7925 29.264C79.1125 29.264 79.3365 29.1947 79.4645 29.056C79.5818 28.9173 79.6405 28.7467 79.6405 28.544V27.072H80.8885V28.624C80.8885 29.1467 80.7125 29.5467 80.3605 29.824C80.0085 30.1013 79.4912 30.24 78.8085 30.24ZM79.4645 15.84V12.464H80.8725V15.84H79.4645ZM85.9631 26.16C85.3338 26.16 84.7471 26.1013 84.2031 25.984C83.6698 25.856 83.2165 25.7067 82.8431 25.536L83.2591 24.384C83.4831 24.4693 83.7391 24.56 84.0271 24.656C84.3151 24.752 84.6245 24.832 84.9551 24.896C85.2965 24.9493 85.6431 24.976 85.9951 24.976C86.5605 24.976 87.0298 24.8693 87.4031 24.656C87.7765 24.4427 87.9631 24.1333 87.9631 23.728C87.9631 23.4827 87.8938 23.2747 87.7551 23.104C87.6271 22.9227 87.4245 22.7573 87.1471 22.608C86.8698 22.4587 86.5125 22.3147 86.0751 22.176C85.4031 21.9627 84.8325 21.7387 84.3631 21.504C83.9045 21.2587 83.5525 20.9707 83.3071 20.64C83.0725 20.2987 82.9551 19.8773 82.9551 19.376C82.9551 18.928 83.0725 18.5333 83.3071 18.192C83.5525 17.84 83.9258 17.568 84.4271 17.376C84.9391 17.1733 85.5898 17.072 86.3791 17.072C86.8911 17.072 87.3711 17.12 87.8191 17.216C88.2778 17.3013 88.6351 17.424 88.8911 17.584V18.784C88.7098 18.6987 88.4805 18.6133 88.2031 18.528C87.9365 18.4427 87.6431 18.3733 87.3231 18.32C87.0031 18.2667 86.6725 18.24 86.3311 18.24C85.6165 18.24 85.1098 18.352 84.8111 18.576C84.5231 18.7893 84.3791 19.0347 84.3791 19.312C84.3791 19.5467 84.4431 19.744 84.5711 19.904C84.7098 20.064 84.9391 20.2187 85.2591 20.368C85.5898 20.5173 86.0325 20.688 86.5871 20.88C87.0991 21.0507 87.5685 21.248 87.9951 21.472C88.4218 21.696 88.7578 21.9787 89.0031 22.32C89.2591 22.6507 89.3871 23.0773 89.3871 23.6C89.3871 24.048 89.2751 24.4693 89.0511 24.864C88.8378 25.248 88.4805 25.5627 87.9791 25.808C87.4778 26.0427 86.8058 26.16 85.9631 26.16ZM92.4636 20.496C92.0263 20.496 91.669 20.432 91.3916 20.304C91.125 20.1653 90.933 19.9947 90.8156 19.792C90.6983 19.5787 90.6396 19.3547 90.6396 19.12C90.6396 18.96 90.661 18.7947 90.7036 18.624C90.757 18.4533 90.821 18.3093 90.8956 18.192L92.0956 18.384C92.0743 18.4373 92.0476 18.512 92.0156 18.608C91.9943 18.704 91.9836 18.8 91.9836 18.896C91.9836 19.0347 92.021 19.152 92.0956 19.248C92.1703 19.3333 92.309 19.376 92.5116 19.376H94.7996V20.496H92.4636ZM92.4636 24.976C92.0263 24.976 91.669 24.912 91.3916 24.784C91.125 24.6453 90.933 24.4747 90.8156 24.272C90.6983 24.0587 90.6396 23.8347 90.6396 23.6C90.6396 23.44 90.661 23.2747 90.7036 23.104C90.757 22.9333 90.821 22.7893 90.8956 22.672L92.0956 22.864C92.0743 22.9173 92.0476 22.992 92.0156 23.088C91.9943 23.184 91.9836 23.28 91.9836 23.376C91.9836 23.5147 92.021 23.632 92.0956 23.728C92.1703 23.8133 92.309 23.856 92.5116 23.856H94.7996V24.976H92.4636ZM100.238 26.16C98.9792 26.16 98.0779 25.872 97.5339 25.296C96.9899 24.72 96.7179 23.8987 96.7179 22.832V17.232H98.1419V22.848C98.1419 23.5627 98.3125 24.096 98.6539 24.448C98.9952 24.8 99.5232 24.976 100.238 24.976C100.963 24.976 101.497 24.8 101.838 24.448C102.19 24.096 102.366 23.5627 102.366 22.848V17.232H103.79V22.832C103.79 23.8987 103.513 24.72 102.958 25.296C102.414 25.872 101.507 26.16 100.238 26.16ZM109.894 26.16C108.635 26.16 107.734 25.872 107.19 25.296C106.646 24.72 106.374 23.8987 106.374 22.832V17.232H107.798V22.848C107.798 23.5627 107.969 24.096 108.31 24.448C108.651 24.8 109.179 24.976 109.894 24.976C110.619 24.976 111.153 24.8 111.494 24.448C111.846 24.096 112.022 23.5627 112.022 22.848V17.232H113.446V22.832C113.446 23.8987 113.169 24.72 112.614 25.296C112.07 25.872 111.163 26.16 109.894 26.16Z" fill="#01919C"/>
<path d="M38.0772 29.3719C39.4236 27.752 40.36 25.8316 40.8072 23.7733C41.2544 21.715 41.1993 19.5792 40.6466 17.5467C40.0938 15.5141 39.0596 13.6446 37.6316 12.0963C36.2035 10.5479 34.4235 9.36634 32.4421 8.65143C30.4608 7.93652 28.3364 7.70933 26.2487 7.98908C24.161 8.26883 22.1714 9.04729 20.4482 10.2586C18.725 11.4699 17.3188 13.0785 16.3487 14.9481C15.3787 16.8178 14.8732 18.8936 14.875 21C14.8757 24.0621 15.9548 27.0261 17.9228 29.3719L17.9041 29.3878C17.9697 29.4666 18.0447 29.5341 18.1122 29.6119C18.1966 29.7084 18.2875 29.7994 18.3747 29.8931C18.6372 30.1781 18.9072 30.4519 19.1903 30.7088C19.2766 30.7875 19.3656 30.8606 19.4528 30.9356C19.7528 31.1944 20.0613 31.44 20.3809 31.6688C20.4222 31.6969 20.4597 31.7334 20.5009 31.7625V31.7513C22.6967 33.2964 25.316 34.1257 28.0009 34.1257C30.6858 34.1257 33.3052 33.2964 35.5009 31.7513V31.7625C35.5422 31.7334 35.5788 31.6969 35.6209 31.6688C35.9397 31.4391 36.2491 31.1944 36.5491 30.9356C36.6363 30.8606 36.7253 30.7866 36.8116 30.7088C37.0947 30.4509 37.3647 30.1781 37.6272 29.8931C37.7144 29.7994 37.8044 29.7084 37.8897 29.6119C37.9563 29.5341 38.0322 29.4666 38.0978 29.3869L38.0772 29.3719ZM28 13.5C28.8344 13.5 29.65 13.7474 30.3438 14.211C31.0376 14.6746 31.5783 15.3334 31.8976 16.1043C32.2169 16.8752 32.3005 17.7234 32.1377 18.5418C31.9749 19.3602 31.5731 20.1119 30.9831 20.7019C30.3931 21.2919 29.6414 21.6937 28.823 21.8564C28.0047 22.0192 27.1564 21.9357 26.3856 21.6164C25.6147 21.2971 24.9558 20.7563 24.4922 20.0626C24.0287 19.3688 23.7813 18.5532 23.7813 17.7188C23.7813 16.5999 24.2257 15.5268 25.0169 14.7357C25.8081 13.9445 26.8811 13.5 28 13.5ZM20.5066 29.3719C20.5228 28.1409 21.0231 26.9658 21.8991 26.1009C22.7751 25.2359 23.9564 24.7506 25.1875 24.75H30.8125C32.0436 24.7506 33.2249 25.2359 34.1009 26.1009C34.9769 26.9658 35.4772 28.1409 35.4934 29.3719C33.4374 31.2247 30.7677 32.2501 28 32.2501C25.2323 32.2501 22.5627 31.2247 20.5066 29.3719Z" fill="#01919C"/>
</svg>
