<svg width="199" height="202" viewBox="0 0 199 202" fill="none" xmlns="http://www.w3.org/2000/svg">
<g filter="url(#filter0_d_63_1076)">
<rect x="4.5" y="2.5" width="189.578" height="189.578" rx="24.5" stroke="black" stroke-opacity="0.5" shape-rendering="crispEdges"/>
</g>
<rect x="84.3181" y="60.8342" width="29.5748" height="79.6244" fill="#00282C"/>
<path d="M83.1808 58.1039C83.9998 58.4679 84.3562 59.9998 84.432 60.7202C94.1765 60.8718 113.643 61.0842 113.552 60.7202C113.461 60.3562 114.121 58.8243 114.462 58.1039C103.694 57.9523 82.3618 57.7399 83.1808 58.1039Z" fill="#00282C"/>
<rect x="33.3588" y="112.704" width="24.1148" height="27.7548" fill="#00282C"/>
<path d="M33.1312 112.704H57.4735C57.3219 104.627 57.8521 88.3861 57.4735 88.1337C56.791 87.6787 46.8949 90.8638 40.6387 99.1674C34.5248 107.282 27.1025 108.95 26.875 109.405C26.693 109.769 30.97 111.756 33.1312 112.704Z" fill="#00282C"/>
<rect width="24.1148" height="27.7548" transform="matrix(-1 0 0 1 165.218 112.746)" fill="#00282C"/>
<path d="M165.447 112.746H141.104C141.256 104.67 140.726 88.4285 141.104 88.1761C141.787 87.7211 151.683 90.9061 157.939 99.2098C164.053 107.324 171.475 108.992 171.703 109.447C171.885 109.811 167.608 111.798 165.447 112.746Z" fill="#00282C"/>
<rect x="59.2937" y="86.5411" width="24.1148" height="53.9171" fill="#00282C"/>
<path d="M58.9576 86.5834H83.3C83.1483 78.5072 83.6785 62.266 83.3 62.0136C82.6175 61.5586 72.7213 64.7437 66.4651 73.0473C60.3513 81.162 52.9289 82.8297 52.7014 83.2847C52.5194 83.6487 56.7964 85.6355 58.9576 86.5834Z" fill="#00282C"/>
<rect width="24.1148" height="53.9171" transform="matrix(-1 0 0 1 139.176 86.5413)" fill="#00282C"/>
<path d="M139.512 86.5836H115.17C115.321 78.5074 114.791 62.2661 115.17 62.0137C115.852 61.5587 125.748 64.7438 132.005 73.0474C138.118 81.1621 145.541 82.8298 145.768 83.2848C145.95 83.6488 141.673 85.6356 139.512 86.5836Z" fill="#00282C"/>
<path d="M96.1565 89.4795H98.4925V96.9951C98.4925 97.8701 98.305 98.6071 97.93 99.2061C97.5602 99.805 97.0471 100.256 96.3909 100.558C95.7399 100.86 94.9899 101.011 94.1409 101.011C93.2919 101.011 92.5367 100.86 91.8753 100.558C91.219 100.256 90.7034 99.805 90.3284 99.2061C89.9586 98.6071 89.7737 97.8701 89.7737 96.9951V89.4795H92.1175V96.9951C92.1175 97.5055 92.1982 97.9222 92.3596 98.2451C92.5211 98.568 92.7529 98.805 93.055 98.9561C93.3623 99.1071 93.7242 99.1826 94.1409 99.1826C94.568 99.1826 94.93 99.1071 95.2268 98.9561C95.5289 98.805 95.7581 98.568 95.9143 98.2451C96.0758 97.9222 96.1565 97.5055 96.1565 96.9951V89.4795ZM104.852 96.7998H101.953V94.9717H104.852C105.3 94.9717 105.664 94.8988 105.946 94.7529C106.227 94.6019 106.433 94.3936 106.563 94.1279C106.693 93.8623 106.758 93.5628 106.758 93.2295C106.758 92.891 106.693 92.5758 106.563 92.2842C106.433 91.9925 106.227 91.7581 105.946 91.5811C105.664 91.404 105.3 91.3154 104.852 91.3154H102.766V100.854H100.422V89.4795H104.852C105.742 89.4795 106.505 89.641 107.141 89.9639C107.782 90.2816 108.271 90.7217 108.61 91.2842C108.948 91.8467 109.117 92.4899 109.117 93.2139C109.117 93.9482 108.948 94.5837 108.61 95.1201C108.271 95.6566 107.782 96.0706 107.141 96.3623C106.505 96.654 105.742 96.7998 104.852 96.7998Z" fill="#9747FF"/>
<defs>
<filter id="filter0_d_63_1076" x="0" y="0" width="198.578" height="198.578" filterUnits="userSpaceOnUse" color-interpolation-filters="sRGB">
<feFlood flood-opacity="0" result="BackgroundImageFix"/>
<feColorMatrix in="SourceAlpha" type="matrix" values="0 0 0 0 0 0 0 0 0 0 0 0 0 0 0 0 0 0 127 0" result="hardAlpha"/>
<feOffset dy="2"/>
<feGaussianBlur stdDeviation="2"/>
<feComposite in2="hardAlpha" operator="out"/>
<feColorMatrix type="matrix" values="0 0 0 0 0 0 0 0 0 0 0 0 0 0 0 0 0 0 0.3 0"/>
<feBlend mode="normal" in2="BackgroundImageFix" result="effect1_dropShadow_63_1076"/>
<feBlend mode="normal" in="SourceGraphic" in2="effect1_dropShadow_63_1076" result="shape"/>
</filter>
</defs>
</svg>
