<svg width="42" height="42" viewBox="0 0 42 42" fill="none" xmlns="http://www.w3.org/2000/svg">
<path d="M17.5 36.75H24.5C24.5 38.675 22.925 40.25 21 40.25C19.075 40.25 17.5 38.675 17.5 36.75ZM36.75 33.25V35H5.25V33.25L8.75 29.75V19.25C8.75 13.825 12.25 9.1 17.5 7.525V7C17.5 5.075 19.075 3.5 21 3.5C22.925 3.5 24.5 5.075 24.5 7V7.525C29.75 9.1 33.25 13.825 33.25 19.25V29.75L36.75 33.25ZM29.75 19.25C29.75 14.35 25.9 10.5 21 10.5C16.1 10.5 12.25 14.35 12.25 19.25V31.5H29.75V19.25Z" fill="#01919C"/>
<circle cx="32.2" cy="11.2" r="9.3" fill="#E73535" stroke="white"/>
<path d="M27.8398 14.2432H27.9326C28.4535 14.2432 28.8766 14.1699 29.2021 14.0234C29.5277 13.877 29.7783 13.68 29.9541 13.4326C30.1299 13.1852 30.2503 12.9069 30.3154 12.5977C30.3805 12.2852 30.4131 11.9645 30.4131 11.6357V10.5469C30.4131 10.2246 30.3757 9.93815 30.3008 9.6875C30.2292 9.43685 30.1283 9.22689 29.998 9.05762C29.8711 8.88835 29.7262 8.75977 29.5635 8.67188C29.4007 8.58398 29.2282 8.54004 29.0459 8.54004C28.8376 8.54004 28.6504 8.58236 28.4844 8.66699C28.3216 8.74837 28.1833 8.86393 28.0693 9.01367C27.9587 9.16341 27.874 9.33919 27.8154 9.54102C27.7568 9.74284 27.7275 9.96257 27.7275 10.2002C27.7275 10.4118 27.7536 10.6169 27.8057 10.8154C27.8577 11.014 27.9375 11.193 28.0449 11.3525C28.1523 11.512 28.2858 11.639 28.4453 11.7334C28.6081 11.8245 28.7985 11.8701 29.0166 11.8701C29.2184 11.8701 29.4072 11.8311 29.583 11.7529C29.762 11.6715 29.9199 11.5625 30.0566 11.4258C30.1966 11.2858 30.3073 11.1279 30.3887 10.9521C30.4733 10.7764 30.5221 10.5924 30.5352 10.4004H30.9648C30.9648 10.6706 30.9111 10.9375 30.8037 11.2012C30.6995 11.4616 30.5531 11.6992 30.3643 11.9141C30.1755 12.1289 29.9541 12.3014 29.7002 12.4316C29.4463 12.5586 29.1696 12.6221 28.8701 12.6221C28.5186 12.6221 28.2142 12.5537 27.957 12.417C27.6999 12.2803 27.4883 12.098 27.3223 11.8701C27.1595 11.6423 27.0374 11.3883 26.9561 11.1084C26.8779 10.8252 26.8389 10.5387 26.8389 10.249C26.8389 9.91048 26.8861 9.5931 26.9805 9.29688C27.0749 9.00065 27.2148 8.74023 27.4004 8.51562C27.5859 8.28776 27.8154 8.11035 28.0889 7.9834C28.3656 7.85645 28.6846 7.79297 29.0459 7.79297C29.4528 7.79297 29.7995 7.87435 30.0859 8.03711C30.3724 8.19987 30.6051 8.41797 30.7842 8.69141C30.9665 8.96484 31.0999 9.27246 31.1846 9.61426C31.2692 9.95605 31.3115 10.3076 31.3115 10.6689V10.9961C31.3115 11.3639 31.2871 11.7383 31.2383 12.1191C31.1927 12.4967 31.1032 12.8581 30.9697 13.2031C30.8395 13.5482 30.6491 13.8574 30.3984 14.1309C30.1478 14.401 29.8206 14.6159 29.417 14.7754C29.0166 14.9316 28.5218 15.0098 27.9326 15.0098H27.8398V14.2432ZM37.2295 11.1865V12.0361H32.3564V11.1865H37.2295ZM35.2471 9.11133V14.2871H34.3438V9.11133H35.2471Z" fill="white"/>
</svg>
